<?xml version="1.0" standalone="no"?>
<!DOCTYPE svg PUBLIC "-//W3C//DTD SVG 20010904//EN"
 "http://www.w3.org/TR/2001/REC-SVG-20010904/DTD/svg10.dtd">
<svg version="1.0" xmlns="http://www.w3.org/2000/svg"
 width="300.000000pt" height="339.000000pt" viewBox="0 0 300.000000 339.000000"
 preserveAspectRatio="xMidYMid meet">
<metadata>
Created by potrace 1.10, written by Peter Selinger 2001-2011
</metadata>
<g transform="translate(0.000000,339.000000) scale(0.100000,-0.100000)"
fill="#000000" stroke="none">
<path d="M1240 3036 c-107 -62 -373 -213 -590 -335 -217 -123 -398 -226 -402
-230 -4 -3 87 -61 203 -128 l211 -122 389 213 389 214 3 251 c1 138 0 250 -3
250 -3 -1 -93 -52 -200 -113z m188 -143 c1 -142 -2 -205 -11 -222 -6 -13 -43
-40 -82 -60 -38 -21 -88 -48 -110 -60 -22 -13 -74 -42 -115 -64 -41 -22 -124
-68 -185 -102 -145 -82 -249 -135 -263 -135 -11 0 -85 40 -227 122 -108 62
-145 87 -145 98 0 9 176 110 191 110 5 0 9 5 9 10 0 6 4 10 9 10 5 0 41 18 80
40 38 22 87 49 108 61 133 75 516 292 608 345 68 39 114 59 120 54 7 -6 12
-82 13 -207z"/>
<path d="M1552 2900 l3 -252 388 -213 389 -214 214 123 213 123 -582 328
c-320 181 -592 335 -605 343 l-22 15 2 -253z m66 190 c20 -12 64 -36 97 -55
33 -19 70 -39 83 -45 12 -5 47 -26 77 -45 31 -19 58 -35 61 -35 3 0 69 -37
147 -81 140 -80 168 -96 277 -156 30 -17 75 -42 100 -57 25 -14 91 -51 148
-83 56 -31 101 -61 99 -66 -3 -9 -37 -30 -276 -168 -46 -27 -91 -49 -100 -49
-9 0 -36 12 -61 26 -25 14 -81 45 -125 69 -44 23 -98 53 -120 65 -22 12 -67
37 -100 55 -246 132 -336 184 -347 199 -9 12 -11 446 -3 446 3 0 22 -9 43 -20z"/>
<path d="M908 3062 c-37 -21 -71 -42 -75 -47 -9 -10 127 63 142 76 17 16 1 9
-67 -29z"/>
<path d="M2025 3093 c6 -6 42 -27 80 -48 39 -21 66 -34 60 -28 -5 6 -41 27
-80 48 -38 21 -65 34 -60 28z"/>
<path d="M723 2958 c-40 -23 -71 -43 -69 -45 4 -4 146 77 146 83 0 6 -1 6 -77
-38z"/>
<path d="M2200 2997 c0 -6 139 -87 148 -87 9 0 -24 21 -90 59 -32 18 -58 30
-58 28z"/>
<path d="M518 2842 c-37 -21 -71 -42 -75 -47 -9 -10 127 63 142 76 17 16 1 9
-67 -29z"/>
<path d="M2415 2873 c6 -6 42 -27 80 -48 39 -21 66 -34 60 -28 -5 6 -41 27
-80 48 -38 21 -65 34 -60 28z"/>
<path d="M128 2622 c-37 -21 -71 -42 -75 -47 -9 -10 127 63 142 76 17 16 1 9
-67 -29z"/>
<path d="M2805 2653 c6 -6 42 -27 80 -48 39 -21 66 -34 60 -28 -5 6 -41 27
-80 48 -38 21 -65 34 -60 28z"/>
<path d="M1195 2394 c-165 -91 -328 -181 -363 -201 l-63 -35 343 -197 c189
-109 353 -203 365 -209 20 -11 59 9 380 194 197 113 360 208 363 211 3 3 1 7
-5 9 -5 3 -170 92 -365 199 -195 107 -354 195 -355 195 0 -1 -135 -75 -300
-166z m630 -51 c170 -94 311 -175 313 -181 4 -12 -60 -56 -158 -109 -30 -16
-100 -56 -155 -88 -240 -140 -311 -177 -330 -177 -11 0 -45 14 -75 32 -100 60
-223 130 -227 130 -2 0 -22 12 -44 26 -36 22 -78 46 -154 89 -82 45 -136 78
-141 87 -8 12 -16 7 191 121 156 87 222 123 375 206 41 22 80 39 85 37 6 -2
149 -80 320 -173z"/>
<path d="M180 1674 l0 -695 43 25 c23 15 120 70 214 124 l173 97 0 452 0 451
-210 121 c-115 67 -212 121 -215 121 -3 0 -5 -313 -5 -696z m85 634 c25 -12
45 -26 45 -30 0 -4 4 -8 9 -8 5 0 38 -16 73 -36 160 -92 198 -115 199 -122 1
-4 2 -195 3 -425 1 -285 -1 -425 -9 -440 -6 -12 -28 -31 -50 -42 -22 -11 -90
-50 -151 -87 -133 -81 -164 -94 -176 -76 -9 15 -11 1248 -2 1272 8 20 5 20 59
-6z"/>
<path d="M2588 2246 l-208 -121 0 -447 0 -446 188 -108 c103 -59 199 -116 215
-126 l27 -19 0 695 c0 383 -3 696 -7 695 -5 -1 -101 -56 -215 -123z m202 32
c0 -29 1 -319 2 -645 1 -326 -1 -595 -5 -599 -10 -10 -74 22 -211 105 -62 38
-122 72 -133 75 -41 13 -43 39 -43 475 0 386 1 419 18 433 30 25 350 208 365
208 4 0 7 -24 7 -52z"/>
<path d="M720 1672 l0 -397 356 -195 c196 -107 360 -196 365 -198 5 -2 9 166
9 380 l0 383 -278 160 c-152 87 -316 182 -364 211 l-88 52 0 -396z m194 246
c68 -40 171 -100 228 -133 56 -33 130 -75 163 -94 33 -18 70 -40 83 -47 l22
-14 0 -345 c0 -324 -1 -344 -17 -338 -10 4 -68 35 -130 70 -62 35 -114 63
-117 63 -2 0 -35 17 -73 39 -37 21 -95 53 -128 71 -137 74 -184 104 -188 121
-3 10 -6 167 -6 349 -1 322 -1 330 18 330 11 0 76 -33 145 -72z"/>
<path d="M2230 2041 c-25 -15 -188 -110 -362 -210 l-318 -183 0 -384 c0 -211
2 -384 5 -384 3 0 16 6 28 14 12 8 170 96 352 196 181 99 333 184 338 189 4 4
6 183 5 399 l-3 391 -45 -28z m-1 -747 c-11 -13 -56 -39 -234 -133 -38 -20
-102 -56 -142 -79 -39 -23 -74 -42 -76 -42 -3 0 -42 -21 -86 -46 -45 -25 -88
-43 -96 -40 -12 4 -14 60 -15 335 l0 330 32 24 c18 14 69 45 113 69 69 39 245
140 365 211 19 11 60 33 90 49 l55 30 3 -348 c2 -248 -1 -351 -9 -360z"/>
<path d="M495 1039 c-116 -67 -213 -124 -217 -128 -4 -4 243 -148 550 -321
306 -172 569 -322 584 -332 14 -10 28 -18 30 -18 1 0 3 116 3 259 l0 259 -367
201 c-201 111 -368 201 -370 201 -2 0 -97 -55 -213 -121z m355 26 c65 -36 142
-78 170 -95 28 -16 53 -30 55 -30 8 0 330 -181 340 -191 12 -12 16 -431 4
-450 -7 -11 -20 -8 -71 19 -78 40 -158 85 -221 123 -26 16 -50 29 -53 29 -3 0
-18 8 -32 19 -15 10 -54 33 -87 51 -33 18 -127 71 -210 117 -82 47 -163 92
-180 101 -16 10 -58 34 -93 55 -35 20 -67 37 -71 37 -17 0 -80 52 -76 63 3 6
31 26 63 42 31 17 59 33 62 36 6 7 210 124 230 132 33 12 55 5 170 -58z"/>
<path d="M1913 958 l-363 -200 0 -260 0 -260 33 20 c28 17 1080 612 1130 639
15 8 -21 32 -203 136 -122 70 -224 127 -228 126 -4 -1 -170 -91 -369 -201z
m508 106 c62 -37 146 -85 186 -107 61 -35 70 -44 62 -59 -5 -10 -14 -18 -20
-18 -5 0 -38 -18 -73 -40 -35 -22 -66 -40 -69 -40 -4 0 -36 -18 -72 -40 -36
-22 -67 -40 -70 -40 -2 0 -46 -24 -97 -53 -90 -52 -143 -82 -238 -135 -25 -13
-49 -28 -55 -32 -9 -7 -63 -36 -200 -110 -33 -18 -64 -36 -70 -40 -25 -19
-105 -60 -119 -60 -14 0 -16 28 -16 223 0 254 -6 233 90 283 30 16 57 32 60
35 3 3 55 32 115 64 61 32 135 72 165 89 214 118 267 146 286 146 11 0 72 -30
135 -66z"/>
<path d="M305 673 c6 -6 42 -27 80 -48 39 -21 66 -34 60 -28 -5 6 -41 27 -80
48 -38 21 -65 34 -60 28z"/>
<path d="M2628 642 c-37 -21 -71 -42 -75 -47 -9 -10 127 63 142 76 17 16 1 9
-67 -29z"/>
<path d="M465 583 c6 -5 37 -25 70 -43 33 -18 56 -28 50 -23 -5 6 -37 26 -70
44 -33 18 -55 28 -50 22z"/>
<path d="M2468 552 c-37 -21 -71 -42 -75 -47 -9 -10 127 63 142 76 17 16 1 9
-67 -29z"/>
<path d="M620 496 c0 -2 26 -19 58 -36 31 -18 76 -44 100 -57 23 -14 42 -23
42 -20 0 3 -35 25 -77 50 -100 57 -123 69 -123 63z"/>
<path d="M2285 449 c-49 -28 -94 -56 -100 -62 -5 -6 10 1 35 15 25 14 71 40
103 58 48 27 66 40 55 40 -2 0 -43 -23 -93 -51z"/>
<path d="M915 327 c38 -25 135 -78 135 -74 0 6 -139 87 -148 87 -4 0 2 -6 13
-13z"/>
<path d="M2023 301 c-82 -48 -94 -63 -18 -21 73 40 103 60 90 59 -6 0 -38 -17
-72 -38z"/>
<path d="M1085 233 c6 -5 37 -25 70 -43 33 -18 56 -28 50 -23 -5 6 -37 26 -70
44 -33 18 -55 28 -50 22z"/>
<path d="M1853 204 c-35 -19 -63 -37 -63 -40 0 -6 109 53 125 68 17 15 0 8
-62 -28z"/>
</g>
</svg>
